<?xml version="1.0" encoding="utf-8"?>
<svg width="50" height="50" xmlns="http://www.w3.org/2000/svg" viewBox="0 0 419.519 419.519"><path d="M105.839 154.031c1.249-1.592 1.602-3.641 1.081-6.263-.514-2.59-1.655-4.429-3.488-5.622-1.818-1.183-4.301-1.471-7.367-.862l-9.972 1.979 3.198 16.11 9.76-1.938c3.237-.641 5.52-1.787 6.788-3.404z"/><path d="M386.784 190.429c-1.622-.34-3.154-.662-4.52-1.017-15.092-3.925-22.58-6.263-27.827-16.394l-19.694-39.873c-6.286-12.135-22.518-22.008-36.183-22.008h-35.354v-27.18c0-8.11-6.598-14.708-14.71-14.708l-234.667.245C5.945 69.494 0 75.766 0 84.083v203.465c0 8.11 6.598 14.708 14.708 14.708h25.659c3.832 27.098 27.169 48.013 55.311 48.013 28.144 0 51.483-20.914 55.315-48.013h93.496c.616 0 1.246-.034 1.879-.082 3.796 27.138 27.151 48.095 55.322 48.095 28.144 0 51.483-20.914 55.315-48.013h36.746c14.208 0 25.766-11.558 25.766-25.765v-44.204c.002-34.99-19.698-39.123-32.733-41.858zM41.011 179.946l5.119 25.786-14.407 2.86-12.708-64.018 44.753-8.884 2.293 11.551-30.346 6.024 3.003 15.129 25.999-5.161 2.292 11.552-25.998 5.161zm54.668 135.158c-11.415 0-20.701-9.287-20.701-20.702 0-11.415 9.286-20.702 20.701-20.702 11.419 0 20.709 9.287 20.709 20.702 0 11.415-9.29 20.702-20.709 20.702zm23.756-123.925l-.311-.161c-1.538-.798-2.749-2.366-3.599-4.661-.779-2.104-1.37-4.157-1.756-6.104l-.872-4.39c-.559-2.816-1.754-4.864-3.552-6.089-1.797-1.223-4.112-1.559-6.893-1.007l-10.867 2.157 4.924 24.805-14.408 2.86-12.708-64.018 24.38-4.84c7.274-1.444 13.404-.892 18.221 1.638 4.892 2.569 7.981 6.94 9.183 12.991.676 3.407.357 6.564-.947 9.383-1.008 2.177-2.584 4.182-4.698 5.983 2.994.626 5.419 1.899 7.23 3.797 2.23 2.341 3.753 5.501 4.527 9.394l.905 4.561c.327 1.648.901 3.351 1.707 5.064.745 1.585 1.686 2.681 2.797 3.258l.427.221.466 2.347-14.156 2.811zm20.375-4.044l-12.708-64.018 44.37-8.808 2.293 11.551-29.962 5.948 2.707 13.638 25.701-5.102 2.292 11.552-25.7 5.102 3.122 15.726 30.048-5.965 2.293 11.552-44.456 8.824zm50.123-9.95l-12.708-64.018 44.37-8.808 2.293 11.551-29.962 5.948 2.708 13.637 25.7-5.102 2.292 11.552-25.7 5.102 3.122 15.726 30.047-5.965 2.293 11.552-44.455 8.825zm111.758 137.919c-11.415 0-20.701-9.287-20.701-20.702 0-11.415 9.286-20.702 20.701-20.702 11.419 0 20.709 9.287 20.709 20.702 0 11.415-9.29 20.702-20.709 20.702zM263.206 187.26v-54.948h27.085c10.395 0 23.217 7.8 27.979 16.988l17.525 35.482c.452.873.924 1.698 1.419 2.478h-74.008z"/></svg>
